<svg id="Layer_1" data-name="Layer 1" xmlns="http://www.w3.org/2000/svg" viewBox="0 0 91.33 67.86">
  <defs>
    <style>
      .cls-1 {
        fill: #3b71db;
      }

      .cls-2 {
        fill: #fff;
      }

      .cls-3 {
        fill: #d8b525;
      }
    </style>
  </defs>
  <g>
    <path class="cls-1" d="M5.15,17h9.49a5.24,5.24,0,0,1,4.94,5.5v9.81a5.24,5.24,0,0,1-4.94,5.5H5.15Zm8.56,17a2.19,2.19,0,0,0,2.08-2.3V23.11a2.22,2.22,0,0,0-2.08-2.3H9V34Z" transform="translate(-5 -17)"/>
    <path class="cls-2" d="M26.5,34.29H36.87v3.52H22.56V17H36.87v3.52H26.5v5.14H36.87v3.47H26.5Z" transform="translate(-5 -17)"/>
    <path class="cls-1" d="M49.21,24.9c3.48,0,6,2.76,6,6.58,0,3.6-2.32,6.33-5.72,6.33H40V34h8.39c1.66,0,3-.78,3-2.47A2.5,2.5,0,0,0,48.72,29H46.25c-4.15,0-6.87-1.76-6.87-6.09A5.58,5.58,0,0,1,44.81,17h8.61v4.06h-7c-1.59,0-2.86.27-2.86,2a1.8,1.8,0,0,0,1.93,1.84Z" transform="translate(-5 -17)"/>
    <path class="cls-2" d="M57.79,17h3.87V37.81H57.79Z" transform="translate(-5 -17)"/>
    <path class="cls-3" d="M75.52,32.36V28.91H72.05V25.66h7V37.81h-3.5v-.66a6.32,6.32,0,0,1-2.78.66H70.63a6.05,6.05,0,0,1-6-6V23.06a6.06,6.06,0,0,1,6-6.06h2.62A5.8,5.8,0,0,1,79,22.53H75.23c-.24-1.08-.81-1.91-2-1.91H70.66a2.46,2.46,0,0,0-2.38,2.64v8.29a2.46,2.46,0,0,0,2.38,2.64h2.69A2.18,2.18,0,0,0,75.52,32.36Z" transform="translate(-5 -17)"/>
    <path class="cls-2" d="M85.62,24.19V37.81H81.9V17h3.72l7.07,13.74V17h3.64V37.81H92.69Z" transform="translate(-5 -17)"/>
    <path class="cls-2" d="M5.15,64h9.49a5.24,5.24,0,0,1,4.94,5.51v9.8a5.24,5.24,0,0,1-4.94,5.51H5.15Zm8.56,17a2.2,2.2,0,0,0,2.08-2.3V70.16a2.21,2.21,0,0,0-2.08-2.3H9V81Z" transform="translate(-5 -17)"/>
    <path class="cls-1" d="M26.5,81.34H36.87v3.52H22.56V64H36.87v3.53H26.5V72.7H36.87v3.47H26.5Z" transform="translate(-5 -17)"/>
    <path class="cls-2" d="M49.21,71.94c3.48,0,6,2.77,6,6.58,0,3.6-2.32,6.34-5.72,6.34H40V81h8.39c1.66,0,3-.78,3-2.47A2.5,2.5,0,0,0,48.72,76H46.25c-4.15,0-6.87-1.76-6.87-6.09A5.58,5.58,0,0,1,44.81,64h8.61V68.1h-7c-1.59,0-2.86.27-2.86,2a1.8,1.8,0,0,0,1.93,1.83Z" transform="translate(-5 -17)"/>
    <path class="cls-2" d="M57.79,64h3.87V84.86H57.79Z" transform="translate(-5 -17)"/>
    <path class="cls-1" d="M75.52,79.4V76H72.05V72.7h7V84.86h-3.5V84.2a6.46,6.46,0,0,1-2.78.66H70.63a6.06,6.06,0,0,1-6-6V70.11a6.07,6.07,0,0,1,6-6.07h2.62A5.8,5.8,0,0,1,79,69.57H75.23c-.24-1.08-.81-1.91-2-1.91H70.66a2.46,2.46,0,0,0-2.38,2.64v8.3a2.46,2.46,0,0,0,2.38,2.64h2.69A2.19,2.19,0,0,0,75.52,79.4Z" transform="translate(-5 -17)"/>
    <path class="cls-2" d="M85.62,71.23V84.86H81.9V64h3.72l7.07,13.75V64h3.64V84.86H92.69Z" transform="translate(-5 -17)"/>
    <path class="cls-2" d="M11,51.46l3.56,4.81q1.81,2.44,3.59,4.79h-3.7l-5.7-7.49H8.59v7.49H5v-19H8.59v7.49h.16l5.7-7.49h3.68Z" transform="translate(-5 -17)"/>
    <path class="cls-1" d="M20,42.09h3.53v19H20Z" transform="translate(-5 -17)"/>
    <path class="cls-2" d="M33.39,55.8h.18c1-4.54,2-9.14,3-13.68h4V61.06H37.87V48.74h-.18C36.84,52.84,35.82,57,35,61.06l-3.06,0L29.31,48.78h-.18V61.06H26.37V42.12h4Z" transform="translate(-5 -17)"/>
    <path class="cls-1" d="M58.59,54.53h.18c1-4.17,2-8.22,3-12.44h3.39l-4.68,19H56.87L53.75,48.85l-3,12.21H47.11l-4.84-19h3.41l3.15,12.44H49l.74-3c.76-3.14,1.54-6.24,2.3-9.41h3.41Z" transform="translate(-5 -17)"/>
    <path class="cls-2" d="M70.75,57.85H80.2v3.21h-13v-19h13V45.3H70.75V50H80.2v3.17H70.75Z" transform="translate(-5 -17)"/>
    <path class="cls-3" d="M95.68,48.27a4.86,4.86,0,0,1-1.34,3.3h0a4,4,0,0,1,1.56,3.3v1.18c0,3.16-1.87,5-4.53,5H82.78v-19h8.38a4.35,4.35,0,0,1,4.52,4.64ZM86.05,50h4.51a2,2,0,0,0,1.85-2.07v-.29a2,2,0,0,0-1.85-2.07H86.05Zm6.6,5.29a2,2,0,0,0-1.87-2.07H86.05v4.36h4.73a2,2,0,0,0,1.87-2.09Z" transform="translate(-5 -17)"/>
  </g>
</svg>
